<svg width="44" height="44" viewBox="0 0 44 44" fill="none" xmlns="http://www.w3.org/2000/svg">
<path d="M0.550645 44H7.61701C7.92087 44 8.16717 43.7537 8.16717 43.4498V39.2983C8.16717 38.8065 8.56769 38.406 9.05953 38.406H27.5944C36.6404 38.4064 44 31.0464 44 22.0003C44 12.9542 36.6401 5.59363 27.5934 5.59363H20.2765C19.7847 5.59363 19.3841 5.19311 19.3841 4.70127V0.550156C19.3841 0.246301 19.1378 0 18.834 0H11.7676C11.4638 0 11.2175 0.246301 11.2175 0.550156V7.26672C11.2175 10.7514 14.0526 13.5862 17.5373 13.5862H19.5914C20.1626 19.5903 19.1463 24.0548 16.5686 26.8598C13.7603 29.9156 10.0083 29.8642 9.95454 29.8638H6.31906C2.83474 29.8634 0 32.6986 0 36.1833V43.4496C0 43.7534 0.246792 44 0.550645 44Z" fill="#F8B281"/>
</svg>
