<svg width="49" height="48" viewBox="0 0 49 48" fill="none" xmlns="http://www.w3.org/2000/svg">
<path d="M33.9889 3.56527C31.6121 1.18842 28.5222 0 25.6699 0C22.8177 0 19.4901 1.18842 17.351 3.56527L3.56527 16.8756C-1.18842 21.6293 -1.18842 28.9975 3.56527 33.7512C8.31896 38.5049 15.6872 38.5049 20.4409 33.7512L33.9889 20.2032C38.5049 15.6872 38.5049 8.08128 33.9889 3.56527ZM30.6613 16.8756L24.0062 23.5308L13.0727 14.2611C6.78433 20.5494 19.0148 8.31897 13.0727 14.2611L20.6786 6.65517C21.867 5.46675 23.7685 4.75369 25.4323 4.75369C27.0961 4.75369 28.9975 5.46675 30.4236 6.65517C33.2759 9.74507 33.2759 14.0234 30.6613 16.8756ZM42.0702 12.1219C42.0702 14.0234 41.5948 15.6872 41.1195 17.5887C43.4963 20.4409 43.4963 24.7192 40.8818 27.3337L34.2266 33.9889L30.6613 30.4236L24.0062 37.0788C20.9163 40.1687 16.6379 41.8325 12.5973 41.8325C13.0727 42.5456 13.548 43.2586 14.2611 43.9717C19.0148 48.7254 26.383 48.7254 31.1367 43.9717L44.6847 30.4236C49.4384 25.6699 49.4384 18.3017 44.6847 13.548C43.4963 13.0727 42.7832 12.5973 42.0702 12.1219Z" fill="#B279A3"/>
</svg>
