<svg width="354" height="407" viewBox="0 0 354 407" fill="none" xmlns="http://www.w3.org/2000/svg">
<path d="M122.596 1.14245C126.345 0.877587 131.54 0.480301 134.139 0.259585C140.625 -0.290854 158.188 0.0807597 166.075 0.935247C198.978 4.50094 226.786 18.4196 242.553 39.2147C249.097 47.8447 255.286 65.6704 257.882 83.3579C259.308 93.0802 260.61 106.567 260.61 111.62C260.61 118.054 257.981 135.524 254.931 149.348C251.293 165.84 246.112 179.478 239.017 191.239C236.05 196.155 223.669 213.451 219.187 218.941C217.771 220.675 214.663 224.169 212.282 226.705C207.387 231.917 207.628 231.149 208.417 239.05C208.981 244.705 211.305 261.995 212.251 267.588C214.806 282.676 221.827 298.177 233.776 315.109C239.166 322.745 244.212 327.624 252.059 332.785C260.997 338.664 267.515 342.121 294.141 355.106C306.766 361.263 318.918 367.432 321.146 368.816C333.02 376.191 343.384 387.863 350.75 402.158L353.246 407L3.39159 406.964L8.44821 402.057C17.5897 393.187 23.9263 389.603 54.2503 376.15C75.7041 366.632 80.9848 363.997 88.272 359.171C95.9422 354.092 98.239 351.759 99.4411 347.826C101.363 341.537 101.122 335.048 98.5756 324.613C97.148 318.762 93.279 308.552 92.9861 307.798C92.4916 306.525 89.6938 296.06 87.271 290.382C83.8716 282.412 77.8086 270.892 76.5273 269.968C75.4466 269.188 74.956 269.185 64.6002 269.898C50.6573 270.858 37.5479 270.955 34.2218 270.122C30.5461 269.202 25.6011 266.804 23.5429 264.943C19.2329 261.046 16.2188 252.031 16.2188 243.037C16.2188 239.331 16.05 237.616 15.6562 237.316C15.347 237.081 14.0809 236.526 12.8432 236.084C7.58946 234.206 4.98081 230.946 4.97136 226.246C4.96371 222.592 6.40665 219.994 9.55629 217.991L11.2207 216.932L8.49726 214.333C5.69643 211.66 3.94294 209.078 3.4321 206.875C2.95232 204.805 3.92088 202.456 6.6668 199.035C9.75208 195.19 13.1893 188.941 12.9872 187.544C12.8761 186.78 11.6023 185.916 7.44228 183.783C-0.0928994 179.921 -1.2739 177.949 1.10566 173.208C1.70471 172.014 5.41739 167.018 9.35556 162.106C18.5893 150.591 25.2203 141.358 25.2203 140.016C25.2203 139.277 24.601 138.54 23.1194 137.514C21.964 136.714 20.5161 135.639 19.9022 135.124L18.786 134.189L20.6264 131.07C23.9232 125.485 24.1149 122.506 21.585 116.178C20.2222 112.77 20.1799 112.467 20.4617 108.132C20.6228 105.655 20.9288 99.2697 21.1422 93.9433C21.7187 79.5319 22.8705 75.9603 31.7451 61.0611C40.2367 46.8059 45.8064 39.1939 53.7687 30.9639C62.0096 22.4461 69.822 16.6624 79.4546 11.9485C91.5931 6.00812 106.466 2.28296 122.596 1.14245Z" fill="#474863"/>
<path fill-rule="evenodd" clip-rule="evenodd" d="M147.947 289.965C155.715 283.475 166.858 280.273 176.209 284.144C185.123 287.835 188.324 298.231 190.582 307.618C192.479 315.501 191.128 323.332 187.366 330.513C183.145 338.571 177.602 345.879 168.999 348.819C157.243 352.838 141.519 358.458 133.576 348.899C125.66 339.371 137.297 326.237 140.233 314.199C142.346 305.534 141.105 295.681 147.947 289.965Z" fill="#EBFEF4"/>
<path d="M155.756 297.149C153.262 295.297 149.807 300.236 150.629 303.233C150.924 304.305 151.118 305.243 152.159 305.635C152.404 305.727 152.552 305.775 152.814 305.78C153.555 305.796 153.842 305.231 154.414 304.76C155.004 304.275 155.305 303.953 155.759 303.339C156.708 302.058 157.576 301.12 157.285 299.551C157.083 298.458 156.649 297.812 155.756 297.149Z" fill="#4B4B6D"/>
<path d="M160.753 308.67C158.483 306.985 155.339 311.48 156.087 314.208C156.355 315.184 156.532 316.038 157.479 316.395C157.702 316.479 157.837 316.522 158.075 316.527C158.75 316.541 159.011 316.027 159.532 315.598C160.069 315.156 160.343 314.864 160.757 314.305C161.62 313.138 162.41 312.284 162.146 310.857C161.961 309.861 161.566 309.273 160.753 308.67Z" fill="#4B4B6D"/>
<path d="M174.53 295.37C172.259 293.684 169.115 298.179 169.863 300.908C170.131 301.884 170.308 302.738 171.255 303.094C171.478 303.178 171.613 303.222 171.851 303.227C172.526 303.241 172.787 302.726 173.308 302.298C173.845 301.856 174.119 301.563 174.533 301.004C175.396 299.838 176.186 298.984 175.922 297.556C175.737 296.561 175.342 295.973 174.53 295.37Z" fill="#4B4B6D"/>
<path d="M180.687 301.233C178.416 299.548 175.272 304.043 176.02 306.771C176.288 307.747 176.465 308.601 177.412 308.958C177.636 309.042 177.77 309.085 178.009 309.09C178.683 309.104 178.944 308.59 179.465 308.161C180.002 307.719 180.276 307.427 180.69 306.868C181.553 305.701 182.344 304.847 182.079 303.42C181.894 302.424 181.499 301.836 180.687 301.233Z" fill="#4B4B6D"/>
<path d="M166.93 317.867C165.328 316.677 163.109 319.849 163.637 321.774C163.826 322.463 163.951 323.066 164.62 323.317C164.777 323.377 164.872 323.407 165.04 323.411C165.516 323.421 165.701 323.058 166.068 322.755C166.447 322.444 166.64 322.237 166.932 321.843C167.542 321.019 168.099 320.417 167.913 319.41C167.782 318.707 167.504 318.292 166.93 317.867Z" fill="#4B4B6D"/>
<path d="M147.177 336.883C145.575 335.693 143.356 338.865 143.884 340.791C144.073 341.48 144.199 342.082 144.867 342.334C145.024 342.393 145.119 342.423 145.287 342.427C145.763 342.437 145.948 342.074 146.315 341.772C146.694 341.46 146.887 341.253 147.18 340.859C147.789 340.036 148.346 339.433 148.16 338.426C148.029 337.723 147.751 337.309 147.177 336.883Z" fill="#4B4B6D"/>
<path d="M146.76 324.812C144.49 323.126 141.345 327.621 142.093 330.35C142.361 331.326 142.539 332.18 143.486 332.536C143.709 332.621 143.843 332.664 144.082 332.669C144.756 332.683 145.017 332.168 145.539 331.74C146.076 331.298 146.349 331.006 146.763 330.446C147.627 329.28 148.417 328.426 148.152 326.999C147.968 326.003 147.573 325.415 146.76 324.812Z" fill="#4B4B6D"/>
<path d="M158.725 335.23C156.454 333.544 153.31 338.039 154.058 340.767C154.326 341.744 154.504 342.597 155.45 342.954C155.674 343.038 155.808 343.081 156.047 343.086C156.721 343.1 156.982 342.586 157.503 342.158C158.041 341.716 158.314 341.423 158.728 340.864C159.592 339.698 160.382 338.844 160.117 337.416C159.932 336.421 159.537 335.833 158.725 335.23Z" fill="#4B4B6D"/>
<path d="M169.801 325.878C167.531 324.193 164.386 328.688 165.135 331.416C165.402 332.393 165.58 333.246 166.527 333.603C166.75 333.687 166.885 333.73 167.123 333.735C167.797 333.749 168.059 333.235 168.58 332.806C169.117 332.364 169.39 332.072 169.804 331.513C170.668 330.346 171.458 329.492 171.193 328.065C171.009 327.069 170.614 326.481 169.801 325.878Z" fill="#4B4B6D"/>
<path d="M168.272 289.07C166.001 287.385 162.857 291.88 163.605 294.608C163.873 295.584 164.05 296.438 164.997 296.795C165.221 296.879 165.355 296.922 165.594 296.927C166.268 296.941 166.529 296.427 167.05 295.998C167.587 295.556 167.861 295.264 168.275 294.705C169.138 293.538 169.929 292.684 169.664 291.257C169.479 290.261 169.084 289.673 168.272 289.07Z" fill="#4B4B6D"/>
<path d="M169.522 305.898C168.18 304.902 166.321 307.559 166.763 309.172C166.921 309.749 167.026 310.254 167.586 310.464C167.718 310.514 167.798 310.54 167.939 310.543C168.337 310.551 168.492 310.247 168.8 309.993C169.117 309.732 169.279 309.559 169.523 309.229C170.034 308.539 170.501 308.035 170.345 307.191C170.235 306.602 170.002 306.255 169.522 305.898Z" fill="#4B4B6D"/>
<path d="M150.113 311.802C148.771 310.806 146.912 313.463 147.355 315.076C147.513 315.653 147.618 316.158 148.178 316.369C148.31 316.418 148.389 316.444 148.53 316.447C148.929 316.455 149.083 316.151 149.391 315.898C149.709 315.636 149.87 315.464 150.115 315.133C150.626 314.444 151.093 313.939 150.936 313.095C150.827 312.507 150.594 312.159 150.113 311.802Z" fill="#4B4B6D"/>
<path d="M154.665 324.121C153.323 323.125 151.465 325.782 151.907 327.394C152.065 327.972 152.17 328.476 152.73 328.687C152.862 328.737 152.941 328.762 153.082 328.765C153.481 328.773 153.635 328.469 153.943 328.216C154.261 327.955 154.423 327.782 154.667 327.452C155.178 326.762 155.645 326.257 155.488 325.414C155.379 324.825 155.146 324.477 154.665 324.121Z" fill="#4B4B6D"/>
<path d="M178.645 317.971C177.303 316.975 175.444 319.632 175.886 321.245C176.045 321.822 176.149 322.327 176.709 322.537C176.841 322.587 176.921 322.613 177.062 322.616C177.46 322.624 177.615 322.32 177.923 322.067C178.24 321.805 178.402 321.633 178.647 321.302C179.157 320.613 179.624 320.108 179.468 319.264C179.359 318.675 179.125 318.328 178.645 317.971Z" fill="#4B4B6D"/>
</svg>
