<svg width="56" height="56" viewBox="0 0 56 56" fill="none" xmlns="http://www.w3.org/2000/svg">
<path d="M28 5.25C15.4356 5.25 5.25 15.4356 5.25 28C5.25 40.5646 15.4356 50.75 28 50.75C40.5646 50.75 50.75 40.5646 50.75 28C50.75 15.4356 40.5646 5.25 28 5.25Z" stroke="#373750" stroke-width="2.91667"/>
<path d="M28.1281 39.6605C26.3447 39.6605 24.7635 38.3194 23.6755 35.8838C22.7216 33.7567 22.2031 30.951 22.2031 27.9828C22.2031 25.0147 22.7216 22.2123 23.6725 20.0832C24.7605 17.6476 26.3417 16.3091 28.1281 16.3091C29.9145 16.3091 31.4935 17.6503 32.5807 20.0858C33.528 22.2123 34.0531 25.016 34.0531 27.9828C34.0531 30.9497 33.5294 33.7534 32.5792 35.8831C31.4905 38.3194 29.9093 39.6605 28.1281 39.6605ZM28.1281 18.4316C27.423 18.4316 26.5387 19.3901 25.8766 20.8738C25.0323 22.7536 24.5731 25.28 24.5731 27.9828C24.5731 30.6857 25.036 33.2121 25.8774 35.0952C26.5395 36.5783 27.4238 37.5374 28.1288 37.5374C28.8339 37.5374 29.719 36.5783 30.3811 35.0952C31.2187 33.2128 31.6831 30.687 31.6831 27.9828C31.6831 25.2787 31.2202 22.7529 30.3788 20.8705C29.7152 19.3874 28.8309 18.4316 28.1281 18.4316Z" fill="#F5735A"/>
<path d="M34.513 36.1445C33.9828 36.1422 33.4534 36.1019 32.9289 36.0238C30.5195 35.6758 27.6887 34.6118 24.9588 33.0353C22.2288 31.4588 19.8955 29.5307 18.3903 27.6146C16.6673 25.4203 16.1853 23.4011 17.0338 21.9298C17.8822 20.4585 19.8687 19.8654 22.6269 20.2636C25.0363 20.6117 27.867 21.6756 30.597 23.2521C33.327 24.8308 35.6603 26.756 37.1655 28.6729C38.8885 30.8664 39.3705 32.8856 38.522 34.3583C37.8455 35.531 36.4481 36.1445 34.513 36.1445ZM21.0371 22.4014C19.9914 22.4014 19.2317 22.633 18.9872 23.0587C18.651 23.6411 19.1126 24.8809 20.1626 26.2174C21.4945 27.9118 23.5987 29.6401 26.0863 31.0789C28.5738 32.5178 31.1185 33.4794 33.2502 33.7879C34.9309 34.03 36.2332 33.8105 36.5686 33.228C36.9041 32.6456 36.4432 31.4058 35.3932 30.0693C34.0613 28.3749 31.9571 26.6466 29.4695 25.2078C26.9819 23.7689 24.4373 22.8073 22.3056 22.4988C21.8856 22.4362 21.4617 22.4037 21.0371 22.4014Z" fill="#F5735A"/>
<path d="M21.4142 36.5635C19.4707 36.5635 18.0672 35.9473 17.3878 34.7689C16.5385 33.2897 17.0198 31.2618 18.7502 29.0587C20.2619 27.1336 22.6053 25.2 25.3471 23.6145C28.0889 22.0291 30.932 20.9626 33.3518 20.613C36.1219 20.2131 38.1163 20.8073 38.9692 22.2864C39.822 23.7656 39.3372 25.7928 37.6067 27.9966C36.095 29.921 33.7516 31.8546 31.0098 33.4408C28.268 35.027 25.425 36.0927 23.0052 36.4423C22.4784 36.5207 21.9467 36.5612 21.4142 36.5635ZM26.4823 25.5794C23.984 27.0244 21.8707 28.7581 20.533 30.462C19.4756 31.8042 19.0121 33.0494 19.3497 33.6322C19.6873 34.2151 20.9952 34.4377 22.6824 34.1945C24.8234 33.8854 27.3791 32.9182 29.8774 31.4738C32.3758 30.0295 34.4891 28.2944 35.8267 26.5912C36.8813 25.2489 37.3449 24.0038 37.0073 23.4188C36.6697 22.8338 35.3625 22.6133 33.6745 22.8565C31.5335 23.1657 28.9779 24.1329 26.4795 25.5772L26.4823 25.5794Z" fill="#F5735A"/>
</svg>
