<svg width="56" height="56" viewBox="0 0 56 56" fill="none" xmlns="http://www.w3.org/2000/svg">
<path d="M28 5.25C15.4356 5.25 5.25 15.4356 5.25 28C5.25 40.5646 15.4356 50.75 28 50.75C40.5646 50.75 50.75 40.5646 50.75 28C50.75 15.4356 40.5646 5.25 28 5.25Z" stroke="#373750" stroke-width="2.91667"/>
<path d="M27.8574 34.7148L26.4122 32.7759L26.4121 32.7758C25.5018 31.5548 25.0119 29.8962 25.0128 28.1806C25.0138 26.4651 25.5054 24.8055 26.4174 23.5828L26.4175 23.5828L27.8657 21.641L29.3109 23.5799L29.311 23.58C30.2212 24.801 30.7112 26.4596 30.7102 28.1752C30.7093 29.8907 30.2177 31.5503 29.3056 32.773L29.3056 32.773L27.8574 34.7148Z" stroke="#F5735A" stroke-width="2.5969"/>
<path d="M26.4645 35.3113L24.0674 34.9623L24.0673 34.9623C22.5577 34.7427 21.0365 33.9167 19.8229 32.7043C18.6092 31.4918 17.7829 29.9726 17.5631 28.4656L17.5631 28.4656L17.214 26.0722L19.6111 26.4212L19.6112 26.4212C21.1208 26.6409 22.642 27.4668 23.8556 28.6793C25.0693 29.8918 25.8956 31.411 26.1153 32.9179L26.1154 32.918L26.4645 35.3113Z" stroke="#F5735A" stroke-width="2.5969"/>
<path d="M29.5372 35.3113L29.8864 32.9183L29.8864 32.9182C30.1061 31.4111 30.9325 29.8919 32.1462 28.6795C33.3599 27.4671 34.8811 26.6412 36.3906 26.4216L36.3906 26.4216L38.7877 26.0726L38.4386 28.4655L38.4386 28.4656C38.2188 29.9727 37.3925 31.4919 36.1787 32.7043C34.965 33.9167 33.4438 34.7426 31.9344 34.9622L31.9343 34.9623L29.5372 35.3113Z" stroke="#F5735A" stroke-width="2.5969"/>
</svg>
